<svg width="512" height="421" viewBox="0 0 512 421" fill="none" xmlns="http://www.w3.org/2000/svg">
<path d="M60.0138 113.101L12.4914 121.901C11.7988 122.029 11.4523 122.814 11.8243 123.412L41.986 171.908C42.2099 172.268 42.6365 172.447 43.0505 172.356L82.8904 163.568C83.5144 163.43 83.8509 162.751 83.5823 162.171L61.1032 113.663C60.9112 113.249 60.4629 113.017 60.0138 113.101Z" fill="url(#paint0_linear_13_35)"/>
<path d="M207.556 50.5382L156.56 12.5882C155.978 12.1548 155.143 12.4668 154.987 13.1758L143.193 66.8356C143.102 67.2513 143.284 67.6794 143.647 67.9022L192.882 98.1554C193.443 98.5001 194.178 98.2178 194.365 97.5862L207.918 51.6233C208.036 51.2214 207.892 50.7883 207.556 50.5382Z" fill="url(#paint1_linear_13_35)"/>
<path d="M304.499 38.8887L350.472 8.82917C351.08 8.43155 351.896 8.79468 352.008 9.51264L361.493 70.5774C361.554 70.9648 361.382 71.3516 361.054 71.5668L321.602 97.4756C321.037 97.8469 320.274 97.5616 320.091 96.9105L304.083 39.9964C303.965 39.5761 304.133 39.1277 304.499 38.8887Z" fill="url(#paint2_linear_13_35)"/>
<path d="M454.441 113.682L503.756 120.727C504.464 120.828 504.84 121.618 504.472 122.231L474.291 172.534C474.078 172.888 473.669 173.076 473.262 173.005L432.819 165.971C432.184 165.861 431.818 165.189 432.069 164.596L453.379 114.282C453.555 113.864 453.992 113.618 454.441 113.682Z" fill="url(#paint3_linear_13_35)"/>
<path d="M206.272 126.465C203.817 59.5492 238.399 14.1199 255.998 0C304.619 44.6926 305.112 103.137 306.953 126.465C310.391 191.294 274.416 240.243 255.998 256.614C207.376 204.554 205.659 148.566 206.272 126.465Z" fill="url(#paint4_linear_13_35)"/>
<path d="M0 207.501C42.2369 179.998 81.036 176.396 95.1559 178.033C134.937 230.584 201.976 257.842 238.197 260.297C123.396 323.53 27.8305 250.065 0 207.501Z" fill="url(#paint5_linear_13_35)"/>
<path d="M512 208.55C469.763 181.047 430.964 177.446 416.844 179.083C377.063 231.633 310.024 258.891 273.803 261.347C388.604 324.579 484.169 251.115 512 208.55Z" fill="url(#paint6_linear_13_35)"/>
<path d="M176.192 101.295C134.446 68.3896 88.4026 64.256 70.5992 66.3023C68.6347 107.557 88.198 144.473 98.2251 157.775C151.267 230.952 207.501 245.154 228.988 243.108C202.958 208.238 195.223 167.597 194.609 151.636C196.082 122.168 182.945 105.797 176.192 101.295Z" fill="url(#paint7_linear_13_35)"/>
<path d="M335.808 102.344C377.554 69.4387 423.597 65.305 441.401 67.3514C443.365 108.606 423.802 145.522 413.775 158.824C360.733 232.002 304.499 246.203 283.012 244.157C309.042 209.287 316.777 168.646 317.391 152.685C315.918 123.217 329.055 106.846 335.808 102.344Z" fill="url(#paint8_linear_13_35)"/>
<path d="M100.549 409.377C92.0436 409.377 85.8958 407.066 82.1055 402.443C78.3151 397.821 76.4199 390.425 76.4199 380.256V303.986H91.1191V379.562C91.1191 383.445 91.4889 386.612 92.2285 389.062C92.9681 391.511 94.401 393.314 96.5273 394.47C98.6999 395.625 101.889 396.203 106.096 396.203C109.932 396.203 114.832 395.325 120.795 393.568L122.459 406.465C118.715 407.482 115.109 408.221 111.643 408.684C108.222 409.146 104.524 409.377 100.549 409.377ZM54.7871 316.883V303.986H77.668V316.883H54.7871ZM172.797 409.377C162.628 409.377 154.723 406.049 149.084 399.393C143.445 392.736 140.625 383.353 140.625 371.242C140.625 359.085 143.445 349.702 149.084 343.092C154.723 336.436 162.628 333.107 172.797 333.107C183.012 333.107 190.917 336.436 196.51 343.092C202.149 349.702 204.969 359.085 204.969 371.242C204.969 383.353 202.149 392.736 196.51 399.393C190.917 406.049 183.012 409.377 172.797 409.377ZM172.797 396.203C178.205 396.203 182.365 394.031 185.277 389.686C188.236 385.34 189.715 379.193 189.715 371.242C189.715 363.245 188.236 357.098 185.277 352.799C182.365 348.454 178.205 346.281 172.797 346.281C167.389 346.281 163.205 348.454 160.247 352.799C157.335 357.098 155.879 363.245 155.879 371.242C155.879 379.193 157.335 385.34 160.247 389.686C163.205 394.031 167.389 396.203 172.797 396.203ZM269.312 409.377C258.173 409.377 250.106 407.066 245.114 402.443C240.168 397.821 237.695 390.425 237.695 380.256V367.775H252.395V379.562C252.395 385.387 253.804 389.616 256.624 392.251C259.49 394.886 264.182 396.203 270.699 396.203C273.01 396.203 275.46 396.088 278.049 395.856C280.637 395.579 283.596 395.232 286.924 394.816L288.588 407.713C285.352 408.268 282.186 408.684 279.089 408.961C276.038 409.238 272.779 409.377 269.312 409.377ZM237.695 373.322V312.307H252.395V373.322H237.695ZM219.252 347.391V334.494H285.814V347.391H219.252ZM331.992 409.377C324.273 409.377 318.287 407.089 314.034 402.513C309.828 397.89 307.725 391.396 307.725 383.029V334.494H322.424V383.029C322.424 387.236 323.626 390.494 326.029 392.806C328.433 395.071 331.807 396.203 336.152 396.203C341.514 396.203 345.559 394.516 348.286 391.142C351.013 387.721 352.377 382.012 352.377 374.016L356.121 393.846H351.268C350.112 398.838 347.847 402.674 344.473 405.355C341.098 408.036 336.938 409.377 331.992 409.377ZM353.625 408.684L352.377 391.072V378.176H367.076V394.678L377.199 396.203V407.99L353.625 408.684ZM352.377 387.189V334.494H367.076V383.029L352.377 387.189ZM416.721 409.377C411.174 409.377 406.413 409.215 402.438 408.892C398.508 408.568 394.903 408.036 391.621 407.297L393.285 393.984C398.139 394.724 402.414 395.279 406.112 395.648C409.856 396.018 413.393 396.203 416.721 396.203C424.163 396.203 429.548 395.487 432.876 394.054C436.25 392.575 437.938 390.24 437.938 387.051C437.938 384.832 437.337 383.191 436.135 382.128C434.979 381.019 433.176 380.163 430.727 379.562L413.809 375.264C406.551 373.415 401.213 371.127 397.792 368.399C394.418 365.672 392.73 361.535 392.73 355.988C392.73 347.945 395.804 342.121 401.952 338.516C408.146 334.91 418.107 333.107 431.836 333.107C435.395 333.107 438.7 333.223 441.751 333.454C444.848 333.639 448.014 333.986 451.25 334.494L449.725 347.252C445.98 346.882 442.675 346.628 439.81 346.489C436.944 346.351 434.147 346.281 431.42 346.281C423.192 346.281 417.229 346.998 413.531 348.431C409.833 349.817 407.984 352.105 407.984 355.295C407.984 357.421 408.747 358.97 410.272 359.94C411.798 360.865 414.132 361.72 417.275 362.506L430.865 365.834C438.585 367.683 444.224 370.156 447.783 373.253C451.389 376.35 453.191 380.857 453.191 386.773C453.191 394.678 450.302 400.433 444.524 404.038C438.746 407.597 429.479 409.377 416.721 409.377Z" fill="#657075"/>
<defs>
<linearGradient id="paint0_linear_13_35" x1="11.0503" y1="112.345" x2="84.7194" y2="172.508" gradientUnits="userSpaceOnUse">
<stop stop-color="#0D9C60"/>
<stop offset="1" stop-color="#0D9C9C"/>
</linearGradient>
<linearGradient id="paint1_linear_13_35" x1="149.794" y1="29.4677" x2="223.463" y2="89.6308" gradientUnits="userSpaceOnUse">
<stop stop-color="#0D9C60"/>
<stop offset="1" stop-color="#0D9C9C"/>
</linearGradient>
<linearGradient id="paint2_linear_13_35" x1="357.909" y1="9.82257" x2="284.24" y2="69.9857" gradientUnits="userSpaceOnUse">
<stop stop-color="#0D9C60"/>
<stop offset="1" stop-color="#0D9C9C"/>
</linearGradient>
<linearGradient id="paint3_linear_13_35" x1="491.127" y1="76.1247" x2="417.458" y2="136.288" gradientUnits="userSpaceOnUse">
<stop stop-color="#0D9C60"/>
<stop offset="1" stop-color="#0D9C9C"/>
</linearGradient>
<linearGradient id="paint4_linear_13_35" x1="205.3" y1="-0.674293" x2="328.488" y2="9.49673" gradientUnits="userSpaceOnUse">
<stop stop-color="#D24DB4"/>
<stop offset="1" stop-color="#CF3FAF"/>
</linearGradient>
<linearGradient id="paint5_linear_13_35" x1="5.72305e-06" y1="177.42" x2="236.969" y2="285.468" gradientUnits="userSpaceOnUse">
<stop stop-color="#D24DB4"/>
<stop offset="1" stop-color="#CF3FAF"/>
</linearGradient>
<linearGradient id="paint6_linear_13_35" x1="512" y1="178.469" x2="275.031" y2="286.517" gradientUnits="userSpaceOnUse">
<stop stop-color="#D24DB4"/>
<stop offset="1" stop-color="#CF3FAF"/>
</linearGradient>
<linearGradient id="paint7_linear_13_35" x1="70.4617" y1="65.4007" x2="256.1" y2="99.7145" gradientUnits="userSpaceOnUse">
<stop stop-color="#D24DB4"/>
<stop offset="1" stop-color="#CF3FAF"/>
</linearGradient>
<linearGradient id="paint8_linear_13_35" x1="441.538" y1="66.4498" x2="255.9" y2="100.764" gradientUnits="userSpaceOnUse">
<stop stop-color="#D24DB4"/>
<stop offset="1" stop-color="#CF3FAF"/>
</linearGradient>
</defs>
</svg>
